<svg width="188" height="122" viewBox="0 0 188 122" fill="none" xmlns="http://www.w3.org/2000/svg">
<g clip-path="url(#clip0_579_512)">
<rect x="2" y="2" width="184" height="118" rx="10" fill="#F2F4F7"/>
<g clip-path="url(#clip1_579_512)">
<rect x="13" y="13" width="163" height="114" rx="5" fill="white"/>
<rect x="63" y="49" width="107" height="75" rx="3" fill="#868686" fill-opacity="0.45"/>
<rect x="152" y="28" width="16" height="7" rx="3" fill="#F1504A"/>
<rect x="133" y="28" width="16" height="7" rx="3" fill="#868686" fill-opacity="0.45"/>
<rect x="63" y="38" width="29" height="3" rx="1.5" fill="#868686" fill-opacity="0.45"/>
<g opacity="0.31">
<rect width="1" height="102" transform="translate(57 22)" fill="#868686" fill-opacity="0.45"/>
</g>
<rect x="63" y="28" width="45" height="6" rx="2" fill="#868686" fill-opacity="0.45"/>
<g opacity="0.26">
<rect x="12" y="12" width="183" height="10" rx="2" fill="#868686" fill-opacity="0.45"/>
</g>
<rect x="25" y="27" width="27" height="3" rx="1.5" fill="#868686" fill-opacity="0.45"/>
<rect x="19" y="27" width="3" height="3" rx="1.5" fill="#868686" fill-opacity="0.45"/>
<rect x="19" y="16" width="3" height="3" rx="1.5" fill="#F1504A"/>
<rect x="23" y="16" width="3" height="3" rx="1.5" fill="#FF872C"/>
<rect x="27" y="16" width="3" height="3" rx="1.5" fill="#4FB6A3"/>
<rect x="19" y="34" width="3" height="3" rx="1.5" fill="#868686" fill-opacity="0.45"/>
<rect x="19" y="41" width="3" height="3" rx="1.5" fill="#868686" fill-opacity="0.45"/>
<rect x="19" y="48" width="3" height="3" rx="1.5" fill="#868686" fill-opacity="0.45"/>
<rect x="19" y="55" width="3" height="3" rx="1.5" fill="#868686" fill-opacity="0.45"/>
<rect x="19" y="62" width="3" height="3" rx="1.5" fill="#868686" fill-opacity="0.45"/>
<rect x="25" y="34" width="27" height="3" rx="1.5" fill="#868686" fill-opacity="0.45"/>
<rect x="25" y="41" width="27" height="3" rx="1.5" fill="#868686" fill-opacity="0.45"/>
<rect x="25" y="48" width="27" height="3" rx="1.5" fill="#868686" fill-opacity="0.45"/>
<rect x="25" y="55" width="27" height="3" rx="1.5" fill="#868686" fill-opacity="0.45"/>
<rect x="25" y="62" width="27" height="3" rx="1.5" fill="#868686" fill-opacity="0.45"/>
</g>
<rect x="166" y="6" width="16" height="16" rx="8" fill="#F1504A"/>
<path d="M177.79 12.4391L177.791 12.4402L173.564 17.4282C173.564 17.4282 173.182 18 172.717 18C172.214 18 171.885 17.4282 171.885 17.4282L170.229 15.4362H170.23V15.4352C170.088 15.2803 170 15.0658 170 14.83C170 14.357 170.351 13.9733 170.785 13.9733C171.035 13.9733 171.257 14.1007 171.401 14.2989C171.826 14.811 172.25 15.3226 172.674 15.8347L176.636 11.2669L176.642 11.2727C176.785 11.1046 176.989 11 177.215 11C177.648 11 178 11.3832 178 11.8567C178 12.0818 177.92 12.2858 177.79 12.4391H177.79Z" fill="white"/>
</g>
<rect x="1" y="1" width="186" height="120" rx="11" stroke="#F1504A" stroke-width="2"/>
<defs>
<clipPath id="clip0_579_512">
<rect x="2" y="2" width="184" height="118" rx="10" fill="white"/>
</clipPath>
<clipPath id="clip1_579_512">
<rect x="13" y="13" width="163" height="114" rx="5" fill="white"/>
</clipPath>
</defs>
</svg>
