<?xml version="1.0" encoding="utf-8"?>
<!-- Svg Vector Icons : http://www.onlinewebfonts.com/icon -->
<!DOCTYPE svg PUBLIC "-//W3C//DTD SVG 1.1//EN" "http://www.w3.org/Graphics/SVG/1.1/DTD/svg11.dtd">
<svg version="1.1" xmlns="http://www.w3.org/2000/svg" xmlns:xlink="http://www.w3.org/1999/xlink" x="0px" y="0px" viewBox="0 0 256 256" enable-background="new 0 0 256 256" xml:space="preserve">
<metadata> Svg Vector Icons : http://www.onlinewebfonts.com/icon </metadata>
<g><g><path fill="#000000" d="M238.8,167.4c-4.5-7.5-10.8-14.2-18.9-19.9c-12-8.5-26.9-14.2-43.1-16.5c7.7-2.6,14.8-7,20.7-12.9c10.1-10.1,15.7-23.6,15.7-37.9s-5.6-27.8-15.7-37.9c-10.1-10.1-23.6-15.7-37.9-15.7c-14.3,0-27.8,5.6-37.9,15.7c-1.4,1.4-2.7,2.8-3.9,4.3c4.6,0.4,9.2,1.4,13.5,3c7.4-6.9,17.4-11.1,28.3-11.1c23,0,41.7,18.7,41.7,41.7c0,22.2-17.4,40.4-39.3,41.6c-2.6,5.9-6.4,11.4-11.1,16.1c-1.7,1.7-3.5,3.2-5.3,4.7c4.6-0.6,9.2-0.9,14-0.9c20.3,0,39.3,5.5,53.5,15.6c13.6,9.6,21,22.2,21,35.4c0,4.2-0.7,8.3-2.2,12.3h12.5c1.1-4,1.6-8.1,1.6-12.3C246,183.8,243.6,175.3,238.8,167.4z"/><path fill="#000000" d="M175.7,191.9c-4.5-7.5-10.8-14.2-18.9-19.9c-12-8.5-26.9-14.2-43.1-16.5c7.7-2.6,14.8-7,20.7-12.9c10.1-10.1,15.7-23.6,15.7-37.9s-5.6-27.8-15.7-37.9c-10.1-10.1-23.6-15.7-37.9-15.7c-14.3,0-27.8,5.6-37.9,15.7C48.4,77,42.8,90.4,42.8,104.7c0,14.3,5.6,27.8,15.7,37.9c5.9,5.9,13,10.3,20.7,12.9c-16.2,2.4-31.1,8-43.1,16.5c-8.1,5.7-14.4,12.4-18.9,19.9c-4.8,8-7.2,16.5-7.2,25.2c0,4.2,0.6,8.3,1.6,12.3h12.5c-1.4-4-2.2-8.1-2.2-12.3c0-13.2,7.5-25.8,21-35.4c14.2-10,33.2-15.6,53.5-15.6s39.3,5.5,53.5,15.6c13.6,9.6,21,22.2,21,35.4c0,4.2-0.7,8.3-2.2,12.3h12.5c1.1-4,1.6-8.1,1.6-12.3C182.9,208.4,180.5,199.9,175.7,191.9z M54.8,104.8c0-23,18.7-41.7,41.7-41.7c23,0,41.7,18.7,41.7,41.7s-18.7,41.7-41.7,41.7C73.4,146.4,54.8,127.7,54.8,104.8z"/></g></g>
</svg>